<svg id="visual" viewBox="0 0 900 600" width="900" height="600" xmlns="http://www.w3.org/2000/svg" xmlns:xlink="http://www.w3.org/1999/xlink" version="1.1"><rect x="0" y="0" width="900" height="600" fill="#1f3050"></rect><defs><linearGradient id="grad1_0" x1="33.3%" y1="0%" x2="100%" y2="100%"><stop offset="20%" stop-color="#1f3050" stop-opacity="1"></stop><stop offset="80%" stop-color="#1f3050" stop-opacity="1"></stop></linearGradient></defs><defs><linearGradient id="grad2_0" x1="0%" y1="0%" x2="66.7%" y2="100%"><stop offset="20%" stop-color="#1f3050" stop-opacity="1"></stop><stop offset="80%" stop-color="#1f3050" stop-opacity="1"></stop></linearGradient></defs><g transform="translate(900, 0)"><path d="M0 270.4C-27.1 263.1 -54.2 255.9 -80 246.3C-105.8 236.8 -130.3 224.9 -152.2 209.5C-174.2 194.1 -193.6 175.1 -212 154C-230.3 132.9 -247.6 109.6 -257.2 83.6C-266.7 57.5 -268.6 28.8 -270.4 0L0 0Z" fill="#ffffff"></path></g><g transform="translate(0, 600)"><path d="M0 -270.4C29.1 -269.2 58.2 -268 83.6 -257.2C108.9 -246.4 130.4 -226 150.5 -207.1C170.6 -188.3 189.2 -170.9 207.9 -151.1C226.6 -131.2 245.4 -108.7 255.8 -83.1C266.3 -57.5 268.3 -28.8 270.4 0L0 0Z" fill="#ffffff"></path></g></svg>